<svg width="200" height="185" viewBox="0 0 200 185" fill="none" xmlns="http://www.w3.org/2000/svg">
<path d="M160.315 165.692H163.055V173.814H167.5V176.101H160.315V165.692Z" fill="#3A3B81"/>
<path d="M145.058 165.692H147.797V176.101H145.058V165.692Z" fill="#3A3B81"/>
<path d="M131.329 168.959C130.96 168.592 130.526 168.31 130.027 168.112C129.538 167.904 129.049 167.8 128.56 167.8C128.131 167.8 127.736 167.88 127.377 168.038C127.018 168.196 126.704 168.414 126.434 168.691C126.165 168.968 125.955 169.295 125.805 169.671C125.666 170.047 125.596 170.453 125.596 170.889C125.596 171.334 125.671 171.745 125.82 172.121C125.97 172.498 126.18 172.829 126.449 173.116C126.719 173.393 127.033 173.611 127.392 173.77C127.761 173.928 128.16 174.007 128.59 174.007C128.969 174.007 129.398 173.918 129.877 173.74C130.366 173.552 130.81 173.309 131.209 173.012L132.766 174.928C132.397 175.185 131.962 175.418 131.464 175.626C130.975 175.834 130.461 175.997 129.922 176.116C129.393 176.235 128.884 176.294 128.395 176.294C127.597 176.294 126.853 176.16 126.165 175.893C125.486 175.616 124.892 175.235 124.383 174.75C123.875 174.265 123.48 173.69 123.201 173.027C122.922 172.364 122.782 171.651 122.782 170.889C122.782 170.127 122.927 169.419 123.216 168.766C123.505 168.112 123.909 167.543 124.428 167.058C124.957 166.573 125.571 166.197 126.269 165.929C126.978 165.662 127.746 165.528 128.575 165.528C129.094 165.528 129.612 165.593 130.131 165.721C130.66 165.85 131.159 166.028 131.628 166.256C132.107 166.484 132.526 166.761 132.886 167.088L131.329 168.959ZM130.401 170.8H132.766V174.928H130.401V170.8Z" fill="#3A3B81"/>
<path d="M104.543 165.692H107.282V173.814H111.728V176.101H104.543V165.692Z" fill="#3A3B81"/>
<path d="M85.4139 171.81C85.4139 172.483 85.6085 173.017 85.9977 173.413C86.3968 173.809 86.8908 174.007 87.4795 174.007C88.0683 174.007 88.5423 173.814 88.9015 173.428C89.2708 173.032 89.4554 172.493 89.4554 171.81V165.692H92.1946V171.81C92.1946 172.72 92 173.512 91.6108 174.185C91.2316 174.859 90.6878 175.378 89.9793 175.744C89.2708 176.111 88.4325 176.294 87.4646 176.294C86.4966 176.294 85.6534 176.111 84.9349 175.744C84.2164 175.378 83.6576 174.859 83.2585 174.185C82.8693 173.512 82.6747 172.72 82.6747 171.81V165.692H85.4139V171.81Z" fill="#3A3B81"/>
<path d="M62.2755 165.692H70.553V167.83H65.0147V169.82H70.0141V171.943H65.0147V173.963H70.7027V176.101H62.2755V165.692Z" fill="#3A3B81"/>
<path d="M48.5469 168.959C48.1777 168.592 47.7436 168.31 47.2446 168.112C46.7557 167.904 46.2667 167.8 45.7777 167.8C45.3486 167.8 44.9545 167.88 44.5952 168.038C44.236 168.196 43.9216 168.414 43.6522 168.691C43.3828 168.968 43.1732 169.295 43.0235 169.671C42.8838 170.047 42.814 170.453 42.814 170.889C42.814 171.334 42.8888 171.745 43.0385 172.121C43.1882 172.498 43.3977 172.829 43.6672 173.116C43.9366 173.393 44.2509 173.611 44.6102 173.77C44.9794 173.928 45.3786 174.007 45.8077 174.007C46.1869 174.007 46.616 173.918 47.0949 173.74C47.5839 173.552 48.028 173.309 48.4271 173.012L49.9838 174.928C49.6146 175.185 49.1805 175.418 48.6816 175.626C48.1926 175.834 47.6787 175.997 47.1398 176.116C46.611 176.235 46.102 176.294 45.6131 176.294C44.8148 176.294 44.0713 176.16 43.3828 175.893C42.7042 175.616 42.1105 175.235 41.6015 174.75C41.0926 174.265 40.6984 173.69 40.419 173.027C40.1396 172.364 39.9999 171.651 39.9999 170.889C39.9999 170.127 40.1446 169.419 40.434 168.766C40.7234 168.112 41.1275 167.543 41.6464 167.058C42.1753 166.573 42.789 166.197 43.4876 165.929C44.1961 165.662 44.9644 165.528 45.7927 165.528C46.3116 165.528 46.8305 165.593 47.3494 165.721C47.8783 165.85 48.3772 166.028 48.8462 166.256C49.3252 166.484 49.7444 166.761 50.1036 167.088L48.5469 168.959ZM47.6188 170.8H49.9838V174.928H47.6188V170.8Z" fill="#3A3B81"/>
<path d="M81.3113 135.648H62.9148C58.5652 135.648 55 131.861 55 127.239V28.9087C55 24.2876 58.5652 20.4998 62.9148 20.4998H81.3826C85.6609 20.4998 89.2261 24.2876 89.2261 28.9087V127.315C89.2261 131.861 85.6609 135.648 81.3113 135.648Z" fill="#3A3B81"/>
<path d="M149.035 130.855L132.026 134.09C128.005 134.855 123.764 131.783 122.612 127.271L98.0965 31.2441C96.9444 26.7313 99.2963 22.4052 103.318 21.6402L120.392 18.392C124.414 17.6269 128.654 20.6989 129.806 25.2117L154.341 121.312C155.408 125.764 153.056 130.09 149.035 130.855Z" fill="#3A3B81"/>
<path d="M167.5 143.025V152.475C167.5 153.6 166.564 154.5 165.394 154.5H42.1055C40.9358 154.5 40 153.6 40 152.475V143.025C40 141.9 40.9358 141 42.1055 141H165.394C166.564 141 167.5 141.9 167.5 143.025Z" fill="#3A3B81"/>
</svg>
